<svg width="700" height="388" viewBox="0 0 700 388" fill="none" xmlns="http://www.w3.org/2000/svg">
<g clip-path="url(#clip0_18_85)">
<path d="M445.479 332.19H60.0646C57.8086 332.187 55.6458 331.289 54.0506 329.691C52.4554 328.094 51.558 325.928 51.5554 323.669V98.9937C51.5579 96.7347 52.4552 94.5689 54.0505 92.9715C55.6457 91.3741 57.8086 90.4756 60.0646 90.4731H445.479C447.735 90.4757 449.897 91.3742 451.493 92.9716C453.088 94.569 453.985 96.7347 453.988 98.9937V323.669C453.985 325.928 453.088 328.094 451.493 329.691C449.897 331.288 447.735 332.187 445.479 332.19Z" fill="#E6E6E6"/>
<path d="M469.505 363.633H36.0388V76.4391C36.0417 73.9143 37.0446 71.4938 38.8275 69.7085C40.6104 67.9232 43.0277 66.9189 45.549 66.9161H459.995C462.516 66.9189 464.933 67.9232 466.716 69.7085C468.499 71.4938 469.502 73.9143 469.505 76.4391V363.633ZM38.041 361.628H467.503V76.4391C467.5 74.4458 466.709 72.5348 465.301 71.1253C463.894 69.7159 461.985 68.9231 459.995 68.9209H45.549C43.5584 68.9231 41.65 69.7159 40.2424 71.1253C38.8349 72.5348 38.0431 74.4458 38.041 76.4391V361.628Z" fill="#CCCCCC"/>
<path d="M252.772 83.4562C254.983 83.4562 256.776 81.661 256.776 79.4465C256.776 77.232 254.983 75.4368 252.772 75.4368C250.56 75.4368 248.767 77.232 248.767 79.4465C248.767 81.661 250.56 83.4562 252.772 83.4562Z" fill="#E6E6E6"/>
<path d="M349.376 284.509H156.168C153.912 284.506 151.749 283.608 150.154 282.01C148.559 280.413 147.661 278.247 147.659 275.988V146.675C147.661 144.416 148.559 142.251 150.154 140.653C151.749 139.056 153.912 138.157 156.168 138.155H349.376C351.632 138.157 353.794 139.056 355.39 140.653C356.985 142.251 357.882 144.416 357.885 146.675V275.988C357.882 278.247 356.985 280.413 355.39 282.01C353.794 283.608 351.632 284.506 349.376 284.509Z" fill="white"/>
<path d="M187.952 193.287C186.368 193.287 184.82 192.817 183.503 191.936C182.186 191.055 181.159 189.802 180.553 188.337C179.947 186.872 179.788 185.259 180.097 183.704C180.407 182.148 181.169 180.719 182.289 179.598C183.409 178.476 184.836 177.712 186.39 177.403C187.943 177.093 189.554 177.252 191.017 177.859C192.48 178.466 193.731 179.494 194.611 180.813C195.491 182.132 195.961 183.682 195.961 185.268C195.958 187.394 195.114 189.433 193.612 190.936C192.111 192.439 190.075 193.285 187.952 193.287Z" fill="#CCCCCC"/>
<path d="M187.952 219.351C186.368 219.351 184.82 218.88 183.503 217.999C182.186 217.118 181.159 215.865 180.553 214.4C179.947 212.935 179.788 211.322 180.097 209.767C180.407 208.211 181.169 206.782 182.289 205.661C183.409 204.539 184.836 203.775 186.39 203.466C187.943 203.156 189.554 203.315 191.017 203.922C192.48 204.529 193.731 205.557 194.611 206.876C195.491 208.195 195.961 209.745 195.961 211.331C195.958 213.457 195.114 215.496 193.612 216.999C192.111 218.502 190.075 219.348 187.952 219.351Z" fill="#00B0FF"/>
<path d="M187.952 245.414C186.368 245.414 184.82 244.943 183.503 244.062C182.186 243.181 181.159 241.928 180.553 240.463C179.947 238.998 179.788 237.385 180.097 235.83C180.407 234.274 181.169 232.845 182.289 231.724C183.409 230.602 184.836 229.838 186.39 229.529C187.943 229.22 189.554 229.378 191.017 229.985C192.48 230.592 193.731 231.62 194.611 232.939C195.491 234.258 195.961 235.808 195.961 237.394C195.958 239.52 195.114 241.559 193.612 243.062C192.111 244.566 190.075 245.411 187.952 245.414Z" fill="#00B0FF"/>
<path d="M225.993 178.753C224.267 178.753 222.612 179.439 221.392 180.661C220.172 181.883 219.486 183.54 219.486 185.268C219.486 186.996 220.172 188.654 221.392 189.876C222.612 191.098 224.267 191.784 225.993 191.784H319.093C320.819 191.784 322.474 191.098 323.694 189.876C324.915 188.654 325.6 186.996 325.6 185.268C325.6 183.54 324.915 181.883 323.694 180.661C322.474 179.439 320.819 178.753 319.093 178.753H225.993Z" fill="#CCCCCC"/>
<path d="M225.993 204.816C224.267 204.816 222.612 205.502 221.392 206.724C220.172 207.946 219.486 209.603 219.486 211.331C219.486 213.059 220.172 214.717 221.392 215.939C222.612 217.161 224.267 217.847 225.993 217.847H319.093C320.819 217.847 322.474 217.161 323.694 215.939C324.915 214.717 325.6 213.059 325.6 211.331C325.6 209.603 324.915 207.946 323.694 206.724C322.474 205.502 320.819 204.816 319.093 204.816H225.993Z" fill="#00B0FF"/>
<path d="M225.993 230.879C224.267 230.879 222.612 231.565 221.392 232.787C220.172 234.009 219.486 235.666 219.486 237.394C219.486 239.122 220.172 240.78 221.392 242.002C222.612 243.224 224.267 243.91 225.993 243.91H319.093C320.819 243.91 322.474 243.224 323.694 242.002C324.915 240.78 325.6 239.122 325.6 237.394C325.6 235.666 324.915 234.009 323.694 232.787C322.474 231.565 320.819 230.879 319.093 230.879H225.993Z" fill="#00B0FF"/>
<path d="M664.002 376.238L651.73 376.032L646.686 328.538L664.797 328.843L664.002 376.238Z" fill="#FFB8B8"/>
<path d="M643.025 372.373L666.691 372.771L666.441 387.692L627.874 387.043C627.907 385.083 628.325 383.15 629.104 381.352C629.883 379.554 631.009 377.928 632.416 376.566C633.822 375.203 635.483 374.132 637.304 373.413C639.124 372.693 641.068 372.34 643.025 372.373Z" fill="#2F2E41"/>
<path d="M542.224 376.125L530.848 371.514L543.196 325.381L559.986 332.187L542.224 376.125Z" fill="#FFB8B8"/>
<path d="M524.037 364.966L545.977 373.859L540.385 387.692L504.631 373.199C506.114 369.531 508.992 366.602 512.631 365.058C516.271 363.514 520.373 363.481 524.037 364.966Z" fill="#2F2E41"/>
<path d="M583.241 198.405L547.202 293.636L532.186 359.796L548.203 367.815L621.282 225.471L648.311 368.316H664.328C664.328 368.316 671.652 198.892 660.983 185.617L583.241 198.405Z" fill="#2F2E41"/>
<path d="M538.563 302.67C554.139 302.67 566.765 290.026 566.765 274.43C566.765 258.833 554.139 246.189 538.563 246.189C522.988 246.189 510.361 258.833 510.361 274.43C510.361 290.026 522.988 302.67 538.563 302.67Z" fill="#00B0FF"/>
<path d="M536.213 286.917L527.262 275.392L532.468 271.338L536.705 276.794L551.023 261.661L555.811 266.203L536.213 286.917Z" fill="white"/>
<path d="M600.76 66.5865C619.005 66.5865 633.796 51.7761 633.796 33.5065C633.796 15.2369 619.005 0.426514 600.76 0.426514C582.515 0.426514 567.725 15.2369 567.725 33.5065C567.725 51.7761 582.515 66.5865 600.76 66.5865Z" fill="#2F2E41"/>
<path d="M554.657 258.61C556.065 257.908 557.302 256.906 558.281 255.674C559.26 254.443 559.957 253.011 560.324 251.48C560.69 249.949 560.717 248.356 560.403 246.814C560.088 245.271 559.44 243.817 558.503 242.552L583.563 103.676L560.178 103.368L542.775 240.698C540.758 242.415 539.44 244.812 539.071 247.437C538.701 250.062 539.306 252.731 540.771 254.939C542.236 257.147 544.458 258.74 547.017 259.416C549.577 260.093 552.295 259.806 554.657 258.61Z" fill="#FFB8B8"/>
<path d="M698.261 231.484C699.144 230.137 699.714 228.608 699.929 227.01C700.143 225.413 699.997 223.787 699.501 222.254C699.004 220.72 698.171 219.318 697.061 218.15C695.951 216.982 694.594 216.079 693.09 215.506L648.34 106.663C647.245 103.999 645.584 101.606 643.471 99.6507C641.359 97.6952 638.846 96.2241 636.108 95.3396C633.371 94.4552 630.473 94.1787 627.618 94.5294C624.762 94.88 622.017 95.8494 619.574 97.3701L678.844 222.434C678.08 224.932 678.244 227.622 679.306 230.008C680.367 232.395 682.255 234.317 684.62 235.419C686.985 236.522 689.669 236.73 692.176 236.007C694.683 235.284 696.844 233.678 698.261 231.484Z" fill="#FFB8B8"/>
<path d="M601.415 70.5903C614.994 70.5903 626.002 59.5673 626.002 45.9698C626.002 32.3722 614.994 21.3492 601.415 21.3492C587.835 21.3492 576.827 32.3722 576.827 45.9698C576.827 59.5673 587.835 70.5903 601.415 70.5903Z" fill="#FFB8B8"/>
<path d="M571.517 84.8982C585.698 78.9864 610.182 73.1436 637.369 85.8782C640.55 87.3634 643.382 89.5054 645.678 92.1637C647.975 94.822 649.684 97.9365 650.694 101.303L662.327 140.265L647.311 155.301L661.326 186.376C661.326 186.376 607.768 218.955 583.742 198.907L569.227 147.282L550.206 142.27L556.695 103.666C557.38 99.5378 559.099 95.6511 561.691 92.3691C564.283 89.087 567.663 86.5166 571.517 84.8982Z" fill="#CCCCCC"/>
<path d="M578.418 27.7626C588.02 33.6321 598.845 37.2037 610.051 38.1997L606.717 34.1991C609.145 35.0979 611.699 35.6059 614.286 35.7041C615.581 35.7417 616.867 35.4748 618.04 34.9248C619.214 34.3749 620.242 33.5572 621.043 32.5373C621.697 31.4782 622.085 30.2765 622.175 29.0346C622.265 27.7927 622.054 26.5474 621.559 25.4051C620.543 23.1265 618.961 21.1462 616.965 19.6526C613.426 16.8494 609.249 14.9664 604.807 14.1715C600.365 13.3766 595.796 13.6944 591.507 15.0967C588.564 15.9772 585.929 17.6699 583.903 19.9807C582.907 21.1448 582.215 22.5382 581.89 24.036C581.564 25.5338 581.615 27.0891 582.038 28.5623" fill="#2F2E41"/>
<path d="M573.819 5.85514C573.419 1.64495 568.269 -0.947004 564.241 0.324762C560.213 1.59653 557.568 5.65777 556.769 9.8105C556.384 11.5594 556.348 13.3671 556.662 15.13C556.977 16.893 557.636 18.5764 558.601 20.0838C559.599 21.5721 561.003 22.7421 562.646 23.4548C564.289 24.1675 566.102 24.3929 567.869 24.1042C571.852 23.2539 574.612 19.3588 575.402 15.3575C576.192 11.3562 575.408 7.23089 574.625 3.22827" fill="#2F2E41"/>
<path d="M641.892 7.86002C641.492 3.64984 636.341 1.05788 632.313 2.32964C628.285 3.60141 625.641 7.66265 624.841 11.8154C624.457 13.5643 624.421 15.372 624.735 17.1349C625.05 18.8978 625.709 20.5813 626.674 22.0887C627.672 23.577 629.076 24.747 630.719 25.4597C632.362 26.1724 634.174 26.3978 635.941 26.1091C639.925 25.2588 642.685 21.3637 643.475 17.3624C644.264 13.3611 643.48 9.23577 642.697 5.23315" fill="#2F2E41"/>
<path d="M477.013 350.602H459.494V347.595C459.494 346.531 459.072 345.511 458.321 344.759C457.57 344.007 456.552 343.585 455.49 343.585H434.467C433.405 343.585 432.386 344.007 431.635 344.759C430.885 345.511 430.463 346.531 430.463 347.595V350.602H427.459V347.595C427.459 346.531 427.038 345.511 426.287 344.759C425.536 344.007 424.517 343.585 423.455 343.585H402.433C401.371 343.585 400.352 344.007 399.601 344.759C398.85 345.511 398.428 346.531 398.428 347.595V350.602H395.425V347.595C395.425 346.531 395.003 345.511 394.252 344.759C393.501 344.007 392.483 343.585 391.421 343.585H370.398C369.336 343.585 368.318 344.007 367.567 344.759C366.816 345.511 366.394 346.531 366.394 347.595V350.602H363.391V347.595C363.391 346.531 362.969 345.511 362.218 344.759C361.467 344.007 360.448 343.585 359.386 343.585H338.364C337.302 343.585 336.283 344.007 335.532 344.759C334.781 345.511 334.359 346.531 334.359 347.595V350.602H331.356V347.595C331.356 346.531 330.934 345.511 330.183 344.759C329.432 344.007 328.414 343.585 327.352 343.585H306.329C305.267 343.585 304.249 344.007 303.498 344.759C302.747 345.511 302.325 346.531 302.325 347.595V350.602H299.322V347.595C299.322 346.531 298.9 345.511 298.149 344.759C297.398 344.007 296.379 343.585 295.317 343.585H274.295C273.233 343.585 272.214 344.007 271.463 344.759C270.712 345.511 270.291 346.531 270.291 347.595V350.602H267.287V347.595C267.287 346.531 266.865 345.511 266.114 344.759C265.363 344.007 264.345 343.585 263.283 343.585H242.26C241.198 343.585 240.18 344.007 239.429 344.759C238.678 345.511 238.256 346.531 238.256 347.595V350.602H235.253V347.595C235.253 346.531 234.831 345.511 234.08 344.759C233.329 344.007 232.311 343.585 231.249 343.585H210.226C209.164 343.585 208.145 344.007 207.394 344.759C206.644 345.511 206.222 346.531 206.222 347.595V350.602H203.218V347.595C203.218 346.531 202.797 345.511 202.046 344.759C201.295 344.007 200.276 343.585 199.214 343.585H178.192C177.13 343.585 176.111 344.007 175.36 344.759C174.609 345.511 174.187 346.531 174.187 347.595V350.602H171.184V347.595C171.184 346.531 170.762 345.511 170.011 344.759C169.26 344.007 168.242 343.585 167.18 343.585H146.157C145.095 343.585 144.077 344.007 143.326 344.759C142.575 345.511 142.153 346.531 142.153 347.595V350.602H139.15V347.595C139.15 346.531 138.728 345.511 137.977 344.759C137.226 344.007 136.207 343.585 135.145 343.585H114.123C113.061 343.585 112.042 344.007 111.291 344.759C110.54 345.511 110.118 346.531 110.118 347.595V350.602H107.115V347.595C107.115 346.531 106.693 345.511 105.942 344.759C105.191 344.007 104.173 343.585 103.111 343.585H82.0882C81.0262 343.585 80.0077 344.007 79.2568 344.759C78.5058 345.511 78.0839 346.531 78.0839 347.595V350.602H75.0807V347.595C75.0807 346.531 74.6588 345.511 73.9079 344.759C73.1569 344.007 72.1384 343.585 71.0764 343.585H50.0538C48.9918 343.585 47.9733 344.007 47.2223 344.759C46.4714 345.511 46.0495 346.531 46.0495 347.595V350.602H28.5306C20.9638 350.602 13.707 353.612 8.35642 358.97C3.0059 364.327 0 371.594 0 379.171C0 381.431 0.896498 383.598 2.49227 385.196C4.08805 386.794 6.25238 387.692 8.50915 387.692H497.034C499.291 387.692 501.455 386.794 503.051 385.196C504.647 383.598 505.543 381.431 505.543 379.171C505.543 371.594 502.538 364.327 497.187 358.97C491.836 353.612 484.58 350.602 477.013 350.602Z" fill="#3F3D56"/>
</g>
<defs>
<clipPath id="clip0_18_85">
<rect width="700" height="387.692" fill="white"/>
</clipPath>
</defs>
</svg>
