<svg width="700" height="465" viewBox="0 0 700 465" fill="none" xmlns="http://www.w3.org/2000/svg">
<g clip-path="url(#clip0_22_74)">
<path d="M354.614 130.642C348.373 120.319 340.977 109.297 329.394 105.926C315.981 102.022 302.201 109.777 290.514 117.429C255.56 140.314 221.899 165.115 189.686 191.718L189.721 192.119C214.801 190.389 239.88 188.66 264.96 186.93C283.08 185.68 301.823 184.259 317.836 175.687C323.913 172.434 329.836 168.089 336.722 167.786C345.276 167.41 352.736 173.385 358.597 179.627C393.272 216.551 403.307 273.017 442.209 305.458C417.678 244.961 388.388 186.506 354.614 130.642Z" fill="#AEDFF2"/>
<path d="M567.757 443.826C563.922 438.984 562.355 437.85 558.573 432.964C527.775 393.131 498.828 351.954 471.731 309.43C453.326 280.55 435.833 251.116 419.253 221.126C411.36 206.869 403.683 192.5 396.222 178.019C390.433 166.791 384.773 155.495 379.242 144.133C377.66 140.887 376.123 137.627 374.594 134.359C370.99 126.675 367.454 118.953 363.656 111.373C359.329 102.734 354.062 93.6765 346.116 87.8722C342.5 85.1222 338.176 83.4583 333.65 83.075C327.181 82.6572 321.213 85.3281 315.602 88.2452C274.554 109.65 236.124 136.486 201.366 167.022C166.517 197.627 135.369 232.203 108.555 270.046C107.735 271.217 105.795 270.098 106.623 268.919C109.883 264.309 113.208 259.748 116.598 255.236C158.745 199.182 210.424 150.978 269.272 112.828C279.172 106.412 289.259 100.297 299.532 94.4822C304.71 91.5502 309.91 88.6555 315.199 85.9399C320.385 83.2764 325.891 80.8815 331.814 80.792C351.973 80.4787 362.411 103.308 369.58 118.67C371.833 123.504 374.114 128.324 376.421 133.128C385.143 151.37 394.2 169.444 403.593 187.352C409.39 198.409 415.314 209.401 421.364 220.328C440.195 254.356 460.209 287.695 481.408 320.345C509.489 363.595 537.347 401.8 569.338 442.244C570.219 443.364 568.645 444.96 567.757 443.826Z" fill="#465259"/>
<path d="M199.374 155.749C198.202 154.443 197.038 153.138 195.86 151.832C186.564 141.551 176.589 131.39 163.824 125.496C157.737 122.597 151.093 121.057 144.351 120.982C137.383 121.005 130.572 122.833 124.133 125.392C121.089 126.608 118.112 127.988 115.181 129.458C111.831 131.144 108.54 132.942 105.265 134.755C99.1177 138.157 93.0498 141.708 87.0616 145.409C75.1468 152.772 63.6052 160.698 52.4367 169.186C46.647 173.587 40.9769 178.133 35.4262 182.824C30.2635 187.181 25.2053 191.654 20.2514 196.245C19.1921 197.223 17.6103 195.641 18.6697 194.664C19.9753 193.448 21.2959 192.239 22.6164 191.045C26.3467 187.673 30.1368 184.365 33.9866 181.123C41.0068 175.199 48.2088 169.504 55.5925 164.038C67.0745 155.533 78.9518 147.604 91.2243 140.253C97.3571 136.583 103.574 133.066 109.876 129.704C111.779 128.689 113.703 127.697 115.651 126.757C120.069 124.528 124.659 122.66 129.378 121.169C136.062 119.007 143.134 118.312 150.111 119.132C156.848 120.112 163.338 122.357 169.24 125.75C181.774 132.755 191.495 143.588 200.955 154.16C201.91 155.234 200.336 156.823 199.374 155.749Z" fill="#465259"/>
<path d="M456.186 262.285L486.22 251.3L501.132 245.846C505.988 244.069 510.833 242.047 515.854 240.775C520.217 239.529 524.849 239.588 529.179 240.945C533.04 242.374 536.575 244.565 539.573 247.388C542.635 250.208 545.484 253.251 548.097 256.492C551.344 260.393 554.543 264.336 557.756 268.265C571.016 284.483 584.19 300.771 597.278 317.129C610.365 333.487 623.364 349.914 636.276 366.411C649.22 382.948 662.074 399.555 674.84 416.23C676.404 418.273 677.966 420.317 679.527 422.362C680.39 423.491 682.335 422.378 681.46 421.232C668.6 404.389 655.651 387.615 642.612 370.909C629.541 354.164 616.379 337.49 603.128 320.887C589.876 304.284 576.535 287.753 563.105 271.294C559.759 267.193 556.407 263.098 553.05 259.006C550.219 255.555 547.419 252.067 544.313 248.854C538.612 242.958 531.489 237.747 522.963 237.606C517.95 237.523 513.098 239.113 508.441 240.798C503.419 242.615 498.41 244.465 493.396 246.299L463.152 257.361L455.591 260.127C454.249 260.617 454.829 262.781 456.186 262.285Z" fill="#465259"/>
<path d="M159.834 136.004C144.571 128.16 125.025 129.697 111 139.497C137.752 144.112 164.212 150.288 190.243 157.992C179.433 151.657 170.977 141.732 159.834 136.004Z" fill="#AEDFF2"/>
<path d="M110.887 141.898L107.949 144.286C108.943 143.45 109.976 142.666 111.037 141.925C110.987 141.916 110.937 141.906 110.887 141.898Z" fill="#F2F2F2"/>
<path d="M538.442 262.395C535.485 258.796 532.289 255.028 527.866 253.566L523.738 253.729C555.166 309.264 597.612 357.79 648.471 396.328C611.795 351.684 575.118 307.039 538.442 262.395Z" fill="#AEDFF2"/>
<path d="M281.707 232.707C283.617 239.648 287.921 245.69 293.858 249.764C296.153 251.326 298.869 252.825 299.654 255.489C300.067 257.186 299.812 258.978 298.943 260.493C298.075 261.99 297.019 263.369 295.8 264.596L295.689 265.013C289.994 261.638 284.575 257.368 281.429 251.543C278.283 245.718 277.844 238.083 281.707 232.707Z" fill="#AEDFF2"/>
<path d="M471.329 397.914C473.239 404.856 477.544 410.897 483.48 414.971C485.775 416.533 488.491 418.033 489.276 420.696C489.689 422.394 489.434 424.185 488.565 425.701C487.697 427.197 486.641 428.576 485.422 429.804L485.311 430.22C479.616 426.845 474.197 422.576 471.051 416.75C467.905 410.925 467.466 403.291 471.329 397.914Z" fill="#AEDFF2"/>
<path d="M92.8984 386.521C94.809 393.462 99.1133 399.504 105.05 403.577C107.345 405.14 110.06 406.639 110.846 409.302C111.259 411 111.004 412.792 110.135 414.307C109.267 415.803 108.211 417.182 106.992 418.41L106.881 418.827C101.185 415.452 95.767 411.182 92.6208 405.357C89.4747 399.532 89.0354 391.897 92.8984 386.521Z" fill="#AEDFF2"/>
<path d="M528.377 83.0106C551.3 83.0106 569.883 64.428 569.883 41.5053C569.883 18.5826 551.3 0 528.377 0C505.455 0 486.872 18.5826 486.872 41.5053C486.872 64.428 505.455 83.0106 528.377 83.0106Z" fill="#00B0FF"/>
<path d="M603.279 9.66049C583.164 6.94153 560.199 17.814 554.985 37.4312C553.671 33.9433 551.283 30.9633 548.164 28.9218C545.046 26.8804 541.359 25.8831 537.637 26.0741C533.914 26.2651 530.349 27.6345 527.456 29.9845C524.563 32.3344 522.492 35.5432 521.542 39.1473L523.845 40.7967C566.951 50.1185 611.573 49.9168 654.594 40.2056C640.602 25.5005 623.394 12.3794 603.279 9.66049Z" fill="#AEDFF2"/>
<path d="M517.013 65.0008C496.897 62.2819 473.933 73.1543 468.719 92.7715C467.405 89.2836 465.016 86.3036 461.898 84.2622C458.78 82.2207 455.093 81.2234 451.371 81.4145C447.648 81.6055 444.083 82.9749 441.19 85.3248C438.297 87.6747 436.226 90.8836 435.276 94.4877L437.579 96.137C480.685 105.459 525.307 105.257 568.328 95.5459C554.336 80.8409 537.128 67.7197 517.013 65.0008Z" fill="#AEDFF2"/>
<path d="M692.578 75.465C692.495 75.4651 692.412 75.4523 692.332 75.4268C477.15 7.37591 287.498 16.2748 166.289 35.7232C149.794 38.369 133.255 41.4248 117.131 44.8065C113.015 45.6688 108.744 46.5931 104.438 47.5555C99.2956 48.7008 94.2215 49.8802 89.356 51.0596C87.2547 51.5571 85.1944 52.0586 83.1752 52.5641C80.1166 53.3191 77.0131 54.1059 73.6862 54.9706C69.9688 55.9291 66.1917 56.9344 62.4575 57.9589C62.4439 57.9637 62.4299 57.9677 62.4158 57.9708L62.4162 57.9716C58.1984 59.1232 54.0029 60.3082 49.9457 61.4916C47.7498 62.1258 45.6294 62.7513 43.5984 63.3688C43.3715 63.4316 43.1704 63.492 42.9666 63.554L42.5302 63.6867C42.2775 63.7638 42.028 63.8393 41.7784 63.9108L41.7625 63.9156L41.7629 63.9164L41.1025 64.1215C40.3149 64.3599 39.5463 64.5928 38.7905 64.8248C18.8151 70.9826 7.834 75.3633 7.72552 75.4062C7.62632 75.446 7.52026 75.4658 7.41339 75.4646C7.30653 75.4633 7.20095 75.4411 7.10268 75.399C7.00442 75.357 6.91539 75.2961 6.84069 75.2196C6.76599 75.1432 6.70707 75.0528 6.66731 74.9536C6.62754 74.8544 6.60771 74.7483 6.60894 74.6414C6.61017 74.5346 6.63243 74.429 6.67446 74.3307C6.71649 74.2325 6.77745 74.1434 6.85389 74.0687C6.93032 73.994 7.02072 73.9351 7.11992 73.8954C7.2292 73.8524 18.264 69.4495 38.3121 63.2687C39.0707 63.0358 39.8412 62.803 40.6312 62.5638L41.2447 62.373C41.2658 62.3651 41.2868 62.3587 41.3083 62.3523C41.5567 62.2816 41.8046 62.2061 42.0566 62.1298L42.4937 61.9971C42.7114 61.9311 42.926 61.866 43.1458 61.8056C45.1629 61.192 47.2904 60.5649 49.4919 59.9283C53.5507 58.7442 57.7502 57.5592 61.9711 56.406C61.9843 56.4012 61.9978 56.398 62.0109 56.3941C65.7582 55.3664 69.5491 54.3563 73.2785 53.3947C76.6105 52.5292 79.72 51.7408 82.7838 50.9842C84.8116 50.4795 86.8759 49.9769 88.9765 49.4765C93.8476 48.2955 98.932 47.1145 104.084 45.9669C108.396 45.0036 112.674 44.0769 116.797 43.2138C132.946 39.8266 149.511 36.766 166.032 34.1163C287.413 14.64 477.338 5.72677 692.823 73.8754C693.008 73.9339 693.166 74.0568 693.269 74.2218C693.371 74.3868 693.412 74.5831 693.382 74.7752C693.352 74.9672 693.255 75.1423 693.108 75.2689C692.96 75.3954 692.772 75.4649 692.578 75.465Z" fill="#465259"/>
<path d="M214.028 341.678C213.746 340.854 213.272 340.109 212.645 339.505C212.413 339.29 212.162 339.097 211.896 338.927C209.772 337.511 206.598 337.194 204.579 338.927C204.376 339.104 204.188 339.297 204.018 339.505C203.416 340.246 202.797 340.97 202.162 341.678C201.121 342.866 200.055 344.014 198.94 345.129C198.622 345.438 198.305 345.755 197.979 346.065C197.792 346.252 197.605 346.431 197.418 346.61C196.702 347.293 195.969 347.953 195.229 348.604C194.838 348.954 194.447 349.296 194.049 349.629C193.454 350.126 192.86 350.622 192.258 351.102C192.201 351.143 192.144 351.184 192.087 351.232C192.071 351.241 192.063 351.257 192.047 351.265C192.038 351.265 192.03 351.265 192.022 351.281C192 351.29 191.981 351.304 191.965 351.322C191.786 351.444 191.664 351.525 191.575 351.599C191.607 351.582 191.64 351.558 191.672 351.542C191.526 351.656 191.371 351.77 191.225 351.884C189.8 352.933 188.344 353.942 186.854 354.886C183.17 357.245 179.299 359.3 175.282 361.031C175.013 361.137 174.736 361.251 174.46 361.356C163.941 365.666 152.53 367.348 141.215 366.256C140.059 366.166 138.903 366.044 137.748 365.889C136.413 365.694 135.087 365.458 133.768 365.19C128.749 364.188 123.838 362.706 119.103 360.762C113.18 358.05 107.547 354.745 102.289 350.899C101.475 350.321 100.653 349.743 99.8315 349.182C100.767 346.887 101.687 344.592 102.582 342.28C103.03 341.165 103.461 340.05 103.884 338.927C107.213 330.276 110.338 321.544 113.333 312.779C116.36 303.9 119.217 294.97 121.903 285.988C122.179 285.076 122.448 284.165 122.708 283.253C124.116 278.509 125.467 273.753 126.761 268.987C126.883 268.523 127.013 268.067 127.127 267.603C127.502 266.236 127.868 264.869 128.226 263.502C129.04 260.417 127.201 256.731 123.962 255.99C122.402 255.59 120.748 255.811 119.349 256.607C117.949 257.402 116.913 258.71 116.458 260.254C116.108 261.573 115.758 262.883 115.4 264.202C113.683 270.574 111.876 276.924 109.98 283.253C109.703 284.165 109.427 285.076 109.15 285.988C104.967 299.774 100.374 313.422 95.3717 326.931C94.7695 328.567 94.1591 330.198 93.5406 331.823C93.2395 332.62 92.9384 333.418 92.6291 334.215C92.035 335.786 91.4247 337.357 90.8143 338.927C90.4643 339.847 90.1062 340.767 89.7482 341.678C89.5122 342.256 89.2843 342.834 89.0564 343.403C86.7361 342.57 84.332 341.992 81.8866 341.678L81.496 341.629C79.6001 341.401 77.6827 341.418 75.791 341.678C72.9597 342.008 70.2356 342.957 67.8112 344.456C65.3868 345.955 63.3212 347.968 61.7606 350.354C57.8786 356.465 57.9275 365.206 63.372 370.398C68.9793 375.745 77.4675 375.704 84.0677 372.359C87.5653 370.467 90.5145 367.703 92.6291 364.335C93.4393 363.114 94.1836 361.851 94.859 360.551C95.0299 360.665 95.2008 360.779 95.3717 360.901C96.0228 361.356 96.6739 361.82 97.3168 362.276C101.063 364.99 105.011 367.414 109.125 369.527C117.973 373.926 127.498 376.806 137.3 378.048C137.52 378.072 137.732 378.105 137.951 378.129C139.034 378.268 140.124 378.374 141.215 378.463C156.858 379.642 172.521 376.441 186.447 369.218C187.627 368.608 188.797 367.967 189.955 367.297C191.754 366.256 193.511 365.149 195.229 363.977C196.164 363.342 197.076 362.699 197.979 362.024C201.927 359.116 205.606 355.862 208.974 352.299C210.252 350.956 211.475 349.569 212.645 348.14C213.75 346.97 214.387 345.435 214.435 343.827C214.429 343.092 214.291 342.364 214.028 341.678ZM79.2661 361.063C79.437 360.941 79.6079 360.811 79.7706 360.681C79.7218 360.803 79.4858 360.941 79.2661 361.063ZM81.8785 358.435C81.6913 358.646 81.5204 358.858 81.3332 359.07C80.7637 359.707 80.152 360.305 79.5021 360.86C79.4125 360.941 79.3149 361.023 79.2172 361.096C79.2162 361.096 79.2151 361.096 79.2141 361.097C79.2131 361.097 79.2122 361.098 79.2114 361.098C79.2107 361.099 79.2101 361.1 79.2097 361.101C79.2093 361.102 79.2091 361.103 79.2091 361.104C79.0915 361.157 78.9774 361.216 78.8673 361.283C78.5173 361.495 78.1592 361.69 77.793 361.869C77.076 362.133 76.3383 362.337 75.5876 362.48C75.0107 362.522 74.4317 362.527 73.8541 362.496H73.8378C73.4392 362.407 73.0454 362.299 72.6578 362.17C72.4625 362.073 72.2753 361.959 72.0881 361.845C72.0148 361.78 71.9497 361.715 71.909 361.674C71.8295 361.601 71.7561 361.522 71.6894 361.438C71.6894 361.437 71.6892 361.436 71.6888 361.435C71.6884 361.434 71.6878 361.433 71.687 361.432C71.6863 361.431 71.6854 361.431 71.6844 361.43C71.6834 361.43 71.6823 361.43 71.6812 361.43C71.5917 361.267 71.494 361.104 71.4045 360.941C71.3999 360.937 71.397 360.931 71.3964 360.925C71.3313 360.722 71.2743 360.51 71.2255 360.298C71.2078 359.927 71.2105 359.555 71.2336 359.184C71.3428 358.664 71.4897 358.152 71.6731 357.654C71.8379 357.3 72.0254 356.957 72.2346 356.628C72.2509 356.596 72.3323 356.465 72.4218 356.319C72.43 356.311 72.4299 356.311 72.4299 356.303C72.552 356.164 72.6741 356.018 72.8043 355.888C73.024 355.643 73.2601 355.432 73.4961 355.212C73.9551 354.912 74.4305 354.637 74.9203 354.39C75.6972 354.114 76.4944 353.899 77.3048 353.747C78.4997 353.652 79.7007 353.663 80.8938 353.78C82.0238 353.976 83.1387 354.25 84.2305 354.602C83.5688 355.886 82.8154 357.121 81.9762 358.296C81.9436 358.345 81.911 358.394 81.8785 358.435ZM72.8287 355.757C72.757 355.872 72.6723 355.979 72.5764 356.075C72.641 355.955 72.7264 355.847 72.8287 355.757Z" fill="#3F3D56"/>
<path d="M189.564 258.562C189.491 261.117 189.418 263.673 189.344 266.228C189.19 271.9 189.03 277.575 188.864 283.253C188.693 289.642 188.514 296.028 188.327 302.411C188.238 305.707 188.145 309.003 188.05 312.299C187.798 321.178 187.548 330.054 187.302 338.927C187.277 339.847 187.245 340.758 187.22 341.678C187.098 346.081 186.976 350.484 186.854 354.886C186.716 359.664 186.58 364.441 186.447 369.218C186.349 372.799 186.249 376.382 186.146 379.969C185.414 405.954 184.681 431.94 183.949 457.925C183.918 459.535 183.265 461.069 182.127 462.207C180.989 463.345 179.454 463.998 177.845 464.029C176.23 464.016 174.685 463.369 173.543 462.227C172.401 461.085 171.754 459.54 171.741 457.925C172.148 443.309 172.56 428.693 172.978 414.076C173.344 400.86 173.716 387.643 174.093 374.427C174.215 370.073 174.337 365.716 174.459 361.356C174.647 354.797 174.831 348.238 175.013 341.678C175.037 340.758 175.07 339.847 175.094 338.927C175.11 338.122 175.135 337.324 175.159 336.518C175.517 323.782 175.875 311.043 176.234 298.301C176.38 293.288 176.521 288.272 176.657 283.253C176.819 277.532 176.982 271.814 177.145 266.098C177.218 263.583 177.283 261.076 177.357 258.562C177.388 256.953 178.041 255.418 179.179 254.28C180.317 253.142 181.851 252.489 183.46 252.458C185.075 252.471 186.62 253.118 187.762 254.26C188.904 255.402 189.551 256.947 189.564 258.562Z" fill="#3F3D56"/>
<path d="M524.396 260.255C517.996 284.491 510.346 308.379 501.478 331.825C499.031 338.292 496.527 344.746 493.851 351.122L494.466 349.664C493.272 352.701 491.746 355.597 489.917 358.3C489.793 358.474 489.666 358.647 489.538 358.818C490.17 358.009 490.29 357.85 489.898 358.339C489.691 358.583 489.487 358.829 489.273 359.068C488.704 359.705 488.092 360.304 487.443 360.861C487.279 361 487.113 361.137 486.945 361.271L487.708 360.678C487.62 360.887 486.998 361.164 486.804 361.282C486.177 361.661 485.523 361.992 484.847 362.274L486.305 361.659C485.198 362.105 484.042 362.422 482.862 362.603L484.484 362.385C483.325 362.545 482.15 362.558 480.987 362.423L482.609 362.641C481.658 362.51 480.727 362.259 479.838 361.894L481.296 362.51C480.822 362.303 480.365 362.059 479.93 361.78C479.709 361.636 479.031 361.122 479.918 361.8C480.84 362.505 480.036 361.861 479.847 361.674C479.689 361.518 479.546 361.348 479.391 361.189C478.673 360.453 480.202 362.456 479.714 361.595C479.453 361.164 479.215 360.719 478.999 360.263L479.615 361.721C479.335 361.027 479.136 360.303 479.022 359.563L479.24 361.186C479.124 360.266 479.123 359.335 479.238 358.415L479.02 360.038C479.169 359.011 479.441 358.005 479.829 357.043L479.214 358.501C479.485 357.853 479.805 357.228 480.173 356.63C480.342 356.321 480.54 356.029 480.765 355.758C480.805 355.771 479.733 356.989 480.302 356.374C480.451 356.213 480.59 356.044 480.741 355.884C480.982 355.629 481.24 355.395 481.494 355.154C482.344 354.344 480.304 355.94 481.285 355.299C481.996 354.832 482.745 354.424 483.523 354.079L482.065 354.694C483.368 354.159 484.734 353.793 486.13 353.604L484.507 353.822C486.256 353.621 488.022 353.642 489.765 353.884L488.143 353.666C490.35 354.001 492.507 354.608 494.565 355.473L493.107 354.858C497.493 356.741 501.378 359.537 505.256 362.278C509.001 364.99 512.948 367.413 517.061 369.526C525.91 373.926 535.435 376.807 545.238 378.05C559.297 379.773 573.564 377.936 586.729 372.711C599.894 367.485 611.536 359.036 620.587 348.141C621.691 346.969 622.327 345.433 622.375 343.824C622.363 342.208 621.722 340.66 620.587 339.509C618.348 337.453 614.118 336.873 611.955 339.509C609.905 342.011 607.702 344.383 605.357 346.611C604.263 347.649 603.139 348.656 601.986 349.63C601.328 350.187 600.66 350.732 599.984 351.267C599.663 351.52 598.666 352.193 600.198 351.106C599.847 351.355 599.51 351.627 599.164 351.883C594.038 355.661 588.484 358.821 582.617 361.295L584.075 360.68C577.779 363.321 571.167 365.132 564.404 366.069L566.026 365.851C559.069 366.766 552.022 366.756 545.067 365.82L546.69 366.038C539.737 365.083 532.937 363.231 526.46 360.528L527.918 361.144C521.668 358.378 515.737 354.942 510.229 350.897C507.362 348.774 504.339 346.871 501.185 345.204C497.51 343.328 493.532 342.119 489.435 341.633C481.753 340.729 473.926 343.721 469.702 350.358C465.816 356.465 465.866 365.205 471.309 370.398C476.914 375.747 485.403 375.702 492.009 372.356C498.371 369.134 502.192 362.439 504.88 356.127C510.927 341.921 516.282 327.387 521.27 312.78C526.205 298.328 530.681 283.729 534.697 268.985C535.194 267.159 535.685 265.331 536.168 263.501C536.982 260.417 535.141 256.73 531.904 255.992C530.344 255.591 528.689 255.811 527.289 256.606C525.888 257.402 524.851 258.71 524.396 260.255Z" fill="#3F3D56"/>
<path d="M585.298 258.561L583.101 336.521L580.915 414.074L579.679 457.926C579.693 459.54 580.34 461.085 581.482 462.227C582.624 463.368 584.168 464.016 585.783 464.03C587.392 463.998 588.927 463.345 590.065 462.207C591.203 461.069 591.856 459.535 591.887 457.926L594.084 379.967L596.269 302.413L597.505 258.561C597.491 256.947 596.844 255.402 595.702 254.261C594.56 253.119 593.016 252.471 591.401 252.458C589.792 252.489 588.258 253.142 587.12 254.28C585.982 255.418 585.329 256.952 585.298 258.561Z" fill="#3F3D56"/>
<path opacity="0.2" d="M374.029 436.16H375.924V349.86H420.138V347.969H375.924V311.555H410.069C409.568 310.919 409.053 310.29 408.523 309.67H375.924V285.619C375.297 285.351 374.665 285.094 374.029 284.851V309.67H336.876V278.854C336.239 278.883 335.612 278.927 334.98 278.98V309.67H305.341V286.678C304.704 286.96 304.077 287.256 303.455 287.567V309.67H278.539V311.555H303.455V347.969H278.539V349.86H303.455V436.16H305.341V349.86C309.233 349.859 313.088 350.625 316.684 352.114C320.281 353.604 323.548 355.787 326.301 358.539C329.053 361.292 331.237 364.56 332.726 368.156C334.215 371.752 334.981 375.607 334.98 379.5V436.16H336.876V349.86H374.029V436.16ZM305.341 347.969V311.555H334.98V347.969H305.341ZM336.876 347.969V311.555H337.619C342.401 311.555 347.136 312.498 351.553 314.328C355.971 316.158 359.985 318.84 363.366 322.222C366.747 325.603 369.428 329.617 371.258 334.035C373.088 338.453 374.029 343.188 374.029 347.969H336.876Z" fill="black"/>
<path d="M362.454 410.284C360.068 420.928 354.352 430.534 346.137 437.71C345.534 438.231 344.932 438.735 344.306 439.232C342.784 439.37 341.273 439.511 339.773 439.655C338.527 439.769 337.299 439.891 336.078 440.005L335.858 440.029L335.703 438.695L335.085 433.291C332.686 429.374 331.198 424.967 330.733 420.397C330.268 415.827 330.838 411.21 332.399 406.89C334.548 401.096 338.438 395.977 342.263 390.898C347.545 383.883 352.68 376.949 352.867 368.396C355.466 371.722 357.627 375.368 359.296 379.244C357.721 379.986 356.305 381.028 355.13 382.313C354.796 382.679 354.462 383.192 354.69 383.631C354.885 384.005 355.374 384.095 355.797 384.144C356.814 384.249 357.84 384.355 358.857 384.461C359.671 384.551 360.485 384.632 361.298 384.721C362.283 387.953 362.951 391.273 363.292 394.634C363.841 399.862 363.558 405.144 362.454 410.284Z" fill="#3F3D56"/>
<path d="M389.473 388.953C384.672 392.445 381.864 397.466 379.683 403C377.447 403.715 375.437 405 373.848 406.727C373.514 407.094 373.18 407.606 373.408 408.046C373.604 408.42 374.092 408.51 374.515 408.559C375.532 408.664 376.558 408.77 377.575 408.876C375.394 415.419 373.392 422.19 369.534 427.716C366.969 431.364 363.625 434.397 359.744 436.595C358.686 437.198 357.594 437.739 356.472 438.214C352.338 438.532 348.283 438.871 344.306 439.232C342.784 439.37 341.273 439.511 339.773 439.655C338.527 439.769 337.299 439.891 336.078 440.005C336.07 439.557 336.07 439.11 336.078 438.662C336.335 426.738 340.722 415.273 348.489 406.223C348.855 405.8 349.229 405.385 349.612 404.97C353.547 400.767 358.174 397.271 363.292 394.634C371.357 390.441 380.396 388.479 389.473 388.953Z" fill="#00B0FF"/>
<path d="M341.18 435.48L340.244 438.247L339.772 439.655C338.527 439.769 337.298 439.891 336.078 440.005L335.858 440.029C334.507 440.168 333.164 440.306 331.821 440.444C331.471 440.037 331.121 439.622 330.78 439.199C322.285 428.913 318.207 415.682 319.438 402.398C320.669 389.114 327.107 376.858 337.347 368.307C336.273 373.93 337.526 379.318 339.585 384.665C339.366 384.754 339.154 384.844 338.95 384.941C337.375 385.683 335.96 386.725 334.784 388.009C334.45 388.376 334.116 388.888 334.344 389.328C334.539 389.702 335.028 389.792 335.451 389.84C336.468 389.946 337.494 390.052 338.511 390.158C339.325 390.247 340.139 390.329 340.952 390.418C341.335 390.459 341.717 390.5 342.1 390.54C342.157 390.662 342.206 390.776 342.263 390.898C344.582 395.928 347.081 400.982 348.489 406.223C348.842 407.538 349.119 408.872 349.319 410.219C349.945 414.77 349.539 419.404 348.13 423.778C346.721 428.151 344.346 432.15 341.18 435.48Z" fill="#00B0FF"/>
<path d="M423.099 317.443C416.093 303.777 405.239 292.278 392.473 283.829C379.666 275.391 364.97 270.252 349.696 268.871C347.694 268.689 345.686 268.582 343.674 268.551C341.297 268.515 305.533 278.831 293.553 287.254C281.579 295.575 271.729 306.594 264.798 319.423C257.879 332.321 254.476 346.813 254.93 361.443C255.523 376.162 259.625 390.525 266.895 403.336C274.066 416.106 284.248 426.93 296.555 434.868C309.037 442.833 321.576 463.951 336.314 464.697C351.163 465.448 368.097 445.527 381.64 439.478C395.183 433.379 406.891 423.838 415.598 411.804C424.058 400.011 429.531 386.342 431.548 371.969C433.642 357.252 432.666 342.075 427.64 328.009C426.351 324.395 424.834 320.866 423.099 317.443C421.651 314.59 417.406 313.54 414.748 315.253C413.379 316.096 412.387 317.434 411.98 318.99C411.572 320.545 411.779 322.198 412.558 323.604C413.409 325.279 414.2 326.982 414.931 328.713L414.316 327.255C417.083 333.908 418.964 340.896 419.912 348.039L419.694 346.416C420.702 354.165 420.684 362.014 419.64 369.759L419.858 368.136C418.803 375.88 416.736 383.452 413.71 390.658L414.325 389.2C412.768 392.877 410.954 396.439 408.896 399.86C407.852 401.588 406.745 403.276 405.575 404.923C405.061 405.646 404.531 406.356 403.997 407.065C403.3 407.989 404.946 405.857 404.226 406.764C404.104 406.918 403.982 407.073 403.859 407.227C403.489 407.689 403.114 408.147 402.734 408.601C400.197 411.628 397.428 414.453 394.452 417.051C393.711 417.698 392.958 418.33 392.192 418.948C391.81 419.256 391.433 419.577 391.035 419.864C391.05 419.853 392.321 418.887 391.569 419.448C391.332 419.624 391.098 419.803 390.861 419.978C389.282 421.148 387.662 422.258 385.999 423.308C382.171 425.72 378.155 427.819 373.99 429.586L375.449 428.97C368.264 431.995 360.713 434.061 352.99 435.116L354.612 434.898C346.893 435.941 339.069 435.955 331.346 434.939L332.968 435.157C325.949 434.215 319.083 432.358 312.545 429.636L314.003 430.251C310.216 428.652 306.565 426.749 303.085 424.562C301.362 423.476 299.685 422.324 298.052 421.105C297.819 420.931 297.588 420.755 297.356 420.58C296.611 420.017 297.892 420.994 297.902 421.001C297.469 420.69 297.052 420.358 296.653 420.004C295.864 419.362 295.088 418.705 294.324 418.033C291.267 415.342 288.413 412.429 285.784 409.318C285.126 408.54 284.482 407.75 283.852 406.949C283.579 406.602 283.082 405.899 284.181 407.379C284.036 407.185 283.887 406.994 283.74 406.8C283.39 406.335 283.044 405.866 282.702 405.394C281.507 403.74 280.371 402.046 279.294 400.311C276.86 396.383 274.737 392.272 272.942 388.015L273.557 389.473C270.62 382.485 268.612 375.142 267.583 367.632L267.801 369.255C266.873 362.332 266.86 355.318 267.762 348.392L267.544 350.014C268.468 343.307 270.273 336.751 272.911 330.516L272.295 331.974C273.955 328.07 275.913 324.3 278.151 320.697C279.272 318.894 280.459 317.135 281.714 315.42C281.999 315.03 282.287 314.643 282.578 314.258C282.842 313.909 283.567 313.042 282.33 314.574C282.451 314.424 282.568 314.269 282.687 314.118C283.376 313.245 284.081 312.387 284.803 311.542C287.536 308.343 290.496 305.346 293.66 302.573C294.46 301.872 295.272 301.186 296.097 300.515C296.472 300.21 296.849 299.908 297.229 299.609C297.381 299.49 297.535 299.372 297.686 299.252C296.061 300.546 297.235 299.604 297.604 299.328C299.304 298.054 301.05 296.843 302.841 295.697C306.823 293.15 311.012 290.943 315.363 289.098L313.905 289.714C320.22 287.062 348.2 280.803 353.289 281.486L351.667 281.268C359.147 282.312 366.457 284.332 373.412 287.276L371.954 286.661C375.479 288.157 378.904 289.878 382.209 291.812C383.86 292.78 385.479 293.8 387.065 294.874C387.816 295.382 388.558 295.901 389.293 296.432C389.661 296.698 390.026 296.966 390.389 297.237C390.591 297.388 390.791 297.54 390.992 297.691C391.838 298.325 389.827 296.773 390.714 297.474C393.681 299.805 396.499 302.32 399.151 305.005C400.454 306.331 401.712 307.7 402.925 309.111C403.547 309.834 404.157 310.569 404.753 311.314C405.05 311.684 406.06 313.024 404.822 311.383C405.125 311.784 405.43 312.182 405.729 312.586C408.301 316.068 410.585 319.752 412.558 323.604C414.018 326.451 418.244 327.512 420.909 325.794C422.279 324.951 423.271 323.613 423.679 322.057C424.087 320.502 423.879 318.849 423.099 317.443Z" fill="#3F3D56"/>
<path d="M351.979 417.051C351.348 417.08 350.725 416.915 350.192 416.578C349.659 416.24 349.243 415.747 348.999 415.165C348.756 414.583 348.697 413.941 348.832 413.324C348.966 412.708 349.286 412.148 349.749 411.72C349.827 411.411 349.882 411.19 349.96 410.882C349.932 410.815 349.904 410.748 349.876 410.681C347.044 403.928 328.973 422.752 328.192 429.099C327.848 431.904 327.993 434.748 328.621 437.504C322.767 424.735 319.727 410.857 319.708 396.81C319.707 393.285 319.903 389.763 320.295 386.26C320.618 383.388 321.068 380.537 321.643 377.706C324.78 362.347 331.516 347.95 341.298 335.699C346.892 336.012 351.795 335.159 352.268 324.318C352.352 322.389 353.783 320.719 354.098 318.82C353.564 318.89 353.021 318.933 352.487 318.968C352.321 318.977 352.146 318.986 351.979 318.995L351.917 318.997C351.33 319.024 350.748 318.88 350.241 318.583C349.733 318.286 349.323 317.849 349.058 317.325C348.794 316.8 348.687 316.21 348.75 315.626C348.813 315.042 349.043 314.488 349.413 314.032C349.644 313.748 349.875 313.465 350.106 313.181C350.456 312.743 350.815 312.314 351.165 311.877C351.205 311.835 351.243 311.791 351.279 311.745C351.682 311.246 352.084 310.756 352.487 310.257C351.752 309.116 350.763 308.16 349.598 307.464C345.562 305.1 339.994 306.737 337.078 310.388C334.154 314.039 333.602 319.161 334.618 323.722C335.617 327.604 337.269 331.287 339.503 334.614C339.284 334.894 339.057 335.165 338.838 335.446C334.837 340.59 331.349 346.115 328.426 351.94C329.253 345.48 319.139 322.148 315.228 317.206C310.529 311.269 300.895 313.86 300.067 321.385C300.059 321.458 300.052 321.531 300.044 321.604C300.625 321.931 301.194 322.279 301.75 322.647C302.449 323.114 302.991 323.782 303.304 324.562C303.617 325.342 303.688 326.198 303.506 327.019C303.324 327.84 302.898 328.587 302.285 329.162C301.671 329.736 300.899 330.112 300.068 330.241L299.983 330.254C292.206 341.357 317.136 370.257 323.376 363.768C320.439 372.092 318.597 380.762 317.896 389.561C317.499 394.752 317.522 399.966 317.966 405.154L317.939 404.97C316.553 393.672 292.767 376.874 285.821 378.274C281.819 379.08 277.878 378.896 278.486 382.933C278.495 382.997 278.505 383.061 278.515 383.126C279.593 383.565 280.643 384.071 281.658 384.64C282.239 384.968 282.808 385.316 283.364 385.684C284.063 386.151 284.605 386.818 284.918 387.599C285.232 388.379 285.302 389.235 285.12 390.056C284.938 390.877 284.513 391.624 283.899 392.198C283.286 392.773 282.513 393.149 281.682 393.277L281.597 393.29C281.536 393.299 281.483 393.308 281.422 393.317C277.882 405.497 304.134 425.154 320.093 418.899H320.102C321.684 425.772 323.975 432.462 326.94 438.861H351.366C351.454 438.589 351.533 438.309 351.612 438.038C349.351 438.18 347.081 438.045 344.853 437.635C346.665 435.411 348.477 433.17 350.29 430.946C350.33 430.905 350.368 430.861 350.403 430.815C351.323 429.677 352.251 428.547 353.17 427.409L353.17 427.408C353.219 423.919 352.819 420.438 351.979 417.052L351.979 417.051ZM324.007 362.026L324.02 362.009L324.007 362.043V362.026ZM318.596 410.801L318.386 410.328C318.395 409.987 318.395 409.645 318.386 409.295C318.386 409.198 318.368 409.102 318.368 409.006C318.447 409.61 318.517 410.214 318.605 410.818L318.596 410.801Z" fill="#3F3D56"/>
<path d="M77.5161 366.223C82.4602 366.223 86.4682 362.215 86.4682 357.271C86.4682 352.327 82.4602 348.319 77.5161 348.319C72.572 348.319 68.564 352.327 68.564 357.271C68.564 362.215 72.572 366.223 77.5161 366.223Z" fill="#3F3D56"/>
<path d="M184.942 463.883C189.886 463.883 193.894 459.875 193.894 454.931C193.894 449.986 189.886 445.978 184.942 445.978C179.998 445.978 175.99 449.986 175.99 454.931C175.99 459.875 179.998 463.883 184.942 463.883Z" fill="#3F3D56"/>
<path d="M592.67 463.883C597.614 463.883 601.622 459.875 601.622 454.931C601.622 449.986 597.614 445.978 592.67 445.978C587.726 445.978 583.718 449.986 583.718 454.931C583.718 459.875 587.726 463.883 592.67 463.883Z" fill="#3F3D56"/>
<path d="M614.644 349.947C619.588 349.947 623.596 345.939 623.596 340.994C623.596 336.05 619.588 332.042 614.644 332.042C609.699 332.042 605.691 336.05 605.691 340.994C605.691 345.939 609.699 349.947 614.644 349.947Z" fill="#3F3D56"/>
<path d="M588.601 266.936C593.545 266.936 597.553 262.928 597.553 257.984C597.553 253.04 593.545 249.032 588.601 249.032C583.657 249.032 579.649 253.04 579.649 257.984C579.649 262.928 583.657 266.936 588.601 266.936Z" fill="#3F3D56"/>
<path d="M215.053 340.994C215.048 343.281 214.164 345.478 212.583 347.131C211.003 348.784 208.848 349.766 206.564 349.874C204.28 349.982 202.041 349.208 200.312 347.712C198.583 346.216 197.495 344.112 197.274 341.836C197.052 339.56 197.715 337.286 199.123 335.485C200.532 333.683 202.579 332.492 204.841 332.158C207.104 331.824 209.408 332.373 211.277 333.691C213.146 335.008 214.437 336.994 214.882 339.237C214.997 339.815 215.054 340.404 215.053 340.994Z" fill="#3F3D56"/>
<path d="M394.096 292.979C399.04 292.979 403.048 288.971 403.048 284.026C403.048 279.082 399.04 275.074 394.096 275.074C389.152 275.074 385.144 279.082 385.144 284.026C385.144 288.971 389.152 292.979 394.096 292.979Z" fill="#3F3D56"/>
<path d="M305.389 284.026C305.383 286.313 304.499 288.51 302.919 290.163C301.339 291.816 299.183 292.798 296.899 292.906C294.615 293.014 292.377 292.24 290.648 290.744C288.918 289.248 287.83 287.144 287.609 284.868C287.388 282.592 288.05 280.318 289.459 278.516C290.867 276.715 292.915 275.524 295.177 275.19C297.439 274.856 299.743 275.405 301.612 276.723C303.481 278.04 304.772 280.026 305.218 282.269C305.333 282.847 305.39 283.436 305.389 284.026Z" fill="#3F3D56"/>
<path d="M189.825 257.984C189.819 260.271 188.935 262.468 187.355 264.121C185.775 265.773 183.619 266.756 181.335 266.864C179.051 266.972 176.813 266.198 175.084 264.701C173.354 263.205 172.267 261.101 172.045 258.825C171.824 256.549 172.486 254.275 173.895 252.474C175.303 250.673 177.351 249.482 179.613 249.148C181.875 248.814 184.179 249.362 186.048 250.68C187.917 251.998 189.208 253.983 189.654 256.226C189.769 256.805 189.826 257.394 189.825 257.984Z" fill="#3F3D56"/>
<path d="M487.686 369.478C492.63 369.478 496.638 365.47 496.638 360.526C496.638 355.582 492.63 351.574 487.686 351.574C482.742 351.574 478.734 355.582 478.734 360.526C478.734 365.47 482.742 369.478 487.686 369.478Z" fill="#3F3D56"/>
<path d="M346.894 288.096C354.085 288.096 359.915 282.266 359.915 275.074C359.915 267.883 354.085 262.053 346.894 262.053C339.702 262.053 333.873 267.883 333.873 275.074C333.873 282.266 339.702 288.096 346.894 288.096Z" fill="#3F3D56"/>
<path d="M699.031 464.567L0.969005 464.817C0.841753 464.817 0.715743 464.792 0.598177 464.743C0.480612 464.694 0.373795 464.623 0.283814 464.533C0.193834 464.443 0.122448 464.336 0.0737508 464.219C0.0250534 464.101 0 463.975 0 463.848C0 463.721 0.0250534 463.595 0.0737508 463.477C0.122448 463.36 0.193834 463.253 0.283814 463.163C0.373795 463.073 0.480612 463.001 0.598177 462.953C0.715743 462.904 0.841753 462.879 0.969005 462.879L699.031 462.629C699.287 462.63 699.533 462.732 699.714 462.914C699.895 463.095 699.997 463.341 699.997 463.598C699.997 463.854 699.895 464.1 699.714 464.282C699.533 464.464 699.287 464.566 699.031 464.567Z" fill="#CACACA"/>
</g>
<defs>
<clipPath id="clip0_22_74">
<rect width="700" height="464.817" fill="white"/>
</clipPath>
</defs>
</svg>
