<svg width="500" height="359" viewBox="0 0 500 359" fill="none" xmlns="http://www.w3.org/2000/svg">
<g clip-path="url(#clip0_14_79)">
<path d="M13.239 358.208C13.239 358.647 13.5915 359 14.0306 359H499.208C499.647 359 500 358.647 500 358.208C500 357.769 499.647 357.416 499.208 357.416H14.0306C13.5915 357.416 13.239 357.769 13.239 358.208Z" fill="#3F3D58"/>
<path d="M168.6 63.3252H12.9928C7.05853 63.3252 2.22864 58.4934 2.22864 52.5569C2.22864 46.6204 7.05853 41.7886 12.9928 41.7886H168.6C174.535 41.7886 179.364 46.6204 179.364 52.5569C179.364 58.4934 174.535 63.3252 168.6 63.3252ZM12.9928 43.1197C7.79033 43.1197 3.55919 47.3525 3.55919 52.5569C3.55919 57.7613 7.79033 61.9941 12.9928 61.9941H168.6C173.803 61.9941 178.034 57.7613 178.034 52.5569C178.034 47.3525 173.803 43.1197 168.6 43.1197H12.9928Z" fill="#465259"/>
<path d="M168.6 189.343H12.9928C7.23816 189.343 2.56128 184.665 2.56128 178.908C2.56128 173.151 7.23816 168.472 12.9928 168.472H168.6C174.355 168.472 179.032 173.151 179.032 178.908C179.032 184.665 174.355 189.343 168.6 189.343Z" fill="#00B0FF"/>
<path d="M117.607 20.871H10.4315C4.67688 20.871 0 16.1923 0 10.4355C0 4.67867 4.67688 0 10.4315 0H117.607C123.362 0 128.039 4.67867 128.039 10.4355C128.039 16.1923 123.362 20.871 117.607 20.871Z" fill="#465259"/>
<path d="M168.6 105.44H12.9928C7.05853 105.44 2.22864 100.608 2.22864 94.6716C2.22864 88.7351 7.05853 83.9033 12.9928 83.9033H168.6C174.535 83.9033 179.364 88.7351 179.364 94.6716C179.364 100.608 174.535 105.44 168.6 105.44ZM12.9928 85.2344C7.79033 85.2344 3.55919 89.4671 3.55919 94.6716C3.55919 99.876 7.79033 104.109 12.9928 104.109H168.6C173.803 104.109 178.034 99.876 178.034 94.6716C178.034 89.4671 173.803 85.2344 168.6 85.2344H12.9928Z" fill="#465259"/>
<path d="M168.6 147.561H12.9928C7.05853 147.561 2.22864 142.73 2.22864 136.793C2.22864 130.856 7.05853 126.025 12.9928 126.025H168.6C174.535 126.025 179.364 130.856 179.364 136.793C179.364 142.73 174.535 147.561 168.6 147.561ZM12.9928 127.356C7.79033 127.356 3.55919 131.589 3.55919 136.793C3.55919 141.997 7.79033 146.23 12.9928 146.23H168.6C173.803 146.23 178.034 141.997 178.034 136.793C178.034 131.589 173.803 127.356 168.6 127.356H12.9928Z" fill="#465259"/>
<path d="M48.4253 34.0552H7.64402C6.67035 34.0552 5.88104 34.8433 5.88104 35.8155C5.88104 36.7877 6.67035 37.5758 7.64402 37.5758H48.4253C49.399 37.5758 50.1883 36.7877 50.1883 35.8155C50.1883 34.8433 49.399 34.0552 48.4253 34.0552Z" fill="#465259"/>
<path d="M48.4253 77.1682H7.64402C6.67035 77.1682 5.88104 77.9563 5.88104 78.9285C5.88104 79.9007 6.67035 80.6888 7.64402 80.6888H48.4253C49.399 80.6888 50.1883 79.9007 50.1883 78.9285C50.1883 77.9563 49.399 77.1682 48.4253 77.1682Z" fill="#465259"/>
<path d="M48.4253 120.288H7.64402C6.67035 120.288 5.88104 121.076 5.88104 122.048C5.88104 123.02 6.67035 123.808 7.64402 123.808H48.4253C49.399 123.808 50.1883 123.02 50.1883 122.048C50.1883 121.076 49.399 120.288 48.4253 120.288Z" fill="#465259"/>
<path d="M297.431 88.0229L282.555 92.9212V71.4978H296.054L297.431 88.0229Z" fill="#9F616A"/>
<path d="M284.398 77.4277C292.584 77.4277 299.22 70.7889 299.22 62.5997C299.22 54.4104 292.584 47.7717 284.398 47.7717C276.212 47.7717 269.576 54.4104 269.576 62.5997C269.576 70.7889 276.212 77.4277 284.398 77.4277Z" fill="#9F616A"/>
<path d="M288.469 61.1289C285.988 61.0557 284.358 58.5466 283.393 56.2572C282.429 53.9678 281.437 51.3389 279.136 50.3939C277.253 49.6219 273.933 54.8463 272.45 53.4553C270.9 52.0045 272.41 44.5572 274.053 43.2195C275.696 41.8818 277.945 41.6222 280.06 41.5224C285.223 41.2828 290.419 41.7021 295.481 42.7603C298.615 43.4125 301.835 44.3975 304.097 46.6603C306.957 49.5354 307.689 53.8679 307.895 57.921C308.108 62.0673 307.869 66.4065 305.853 70.0337C303.837 73.6608 299.619 76.3362 295.575 75.4111C295.169 73.2149 295.581 70.9588 295.741 68.7226C295.894 66.493 295.734 64.0838 294.37 62.3069C293.013 60.5299 290.099 59.8244 288.516 61.4017" fill="#2F2E43"/>
<path d="M306.705 66.2668C308.188 65.182 309.964 64.2702 311.787 64.4965C313.757 64.7361 315.426 66.36 315.932 68.2833C316.438 70.2067 315.872 72.3231 314.648 73.8938C313.431 75.4644 311.614 76.5026 309.698 77.0218C308.587 77.3212 307.37 77.4477 306.312 76.9951C304.755 76.3229 303.91 74.333 304.523 72.7491" fill="#2F2E43"/>
<path d="M249.983 205.782C248.992 210.653 250.808 215.106 254.028 215.725C257.248 216.344 260.661 212.89 261.646 208.018C262.065 206.075 261.998 204.065 261.453 202.148L273.714 125.778L258.379 122.89L252.458 200.424C251.201 201.995 250.356 203.832 249.983 205.788V205.782Z" fill="#9F616A"/>
<path d="M282.396 83.0914H271.931C264.533 84.2161 262.524 88.1627 260.841 95.4569C258.273 106.585 254.993 121.399 255.645 121.619C256.689 121.965 274.505 130.351 283.586 128.434L282.396 83.0914Z" fill="#E2E3E4"/>
<path d="M292.514 326.349H278.583V346.122H292.514V326.349Z" fill="#9F616A"/>
<path d="M265.019 358.088C263.555 358.088 262.251 358.055 261.266 357.962C257.567 357.622 254.035 354.887 252.259 353.29C251.46 352.571 251.207 351.426 251.62 350.441C251.919 349.736 252.511 349.203 253.25 348.997L263.029 346.202L278.863 335.513L279.042 335.833C279.109 335.953 280.666 338.755 281.185 340.645C281.384 341.363 281.331 341.962 281.032 342.428C280.825 342.748 280.533 342.934 280.3 343.041C280.586 343.34 281.484 343.952 284.252 344.392C288.29 345.03 289.141 340.844 289.175 340.671L289.201 340.532L289.321 340.452C291.244 339.214 292.428 338.648 292.834 338.768C293.086 338.841 293.512 338.974 294.663 350.375C294.776 350.734 295.581 353.356 295.036 355.865C294.444 358.594 282.522 357.656 280.134 357.443C280.067 357.449 271.139 358.088 265.025 358.088H265.019Z" fill="#2F2E43"/>
<path d="M332.182 310.814L320.362 318.189L330.821 334.966L342.641 327.592L332.182 310.814Z" fill="#9F616A"/>
<path d="M316.484 355.38C314.848 355.38 313.344 355.18 312.273 354.994C311.222 354.807 310.397 353.969 310.224 352.917C310.104 352.158 310.324 351.393 310.843 350.827L317.662 343.28L325.445 325.83L325.765 326.003C325.884 326.07 328.685 327.62 330.129 328.951C330.681 329.457 330.954 329.996 330.941 330.549C330.934 330.935 330.788 331.241 330.641 331.46C331.04 331.567 332.125 331.607 334.706 330.515C338.471 328.925 336.981 324.918 336.915 324.752L336.862 324.619L336.921 324.492C337.899 322.423 338.598 321.318 339.01 321.205C339.27 321.131 339.696 321.018 346.701 330.089C346.987 330.329 349.056 332.133 349.921 334.548C350.859 337.177 340.248 342.695 338.112 343.773C338.046 343.826 326.942 351.899 322.378 354.195C320.569 355.107 318.427 355.386 316.478 355.386L316.484 355.38Z" fill="#2F2E43"/>
<path d="M302.773 160.998H263.768L260.229 197.296L275.716 331.414H295.628L287.664 253.953L319.964 323.887L337.66 311.495L312.439 246.206C312.439 246.206 321.447 189.33 314.369 175.161C307.29 160.998 302.773 160.998 302.773 160.998Z" fill="#2F2E43"/>
<path d="M322.179 163.208H260.229L278.816 83.0914H305.807L322.179 163.208Z" fill="#E2E3E4"/>
<path d="M327.754 205.782C328.745 210.653 326.929 215.106 323.709 215.725C320.489 216.344 317.076 212.89 316.092 208.018C315.673 206.075 315.739 204.065 316.285 202.148L304.024 125.778L319.358 122.89L325.279 200.424C326.536 201.995 327.381 203.832 327.754 205.788V205.782Z" fill="#9F616A"/>
<path d="M295.342 83.0914H305.806C313.204 84.2161 315.213 88.1627 316.897 95.4569C319.465 106.585 322.744 121.399 322.092 121.619C321.048 121.965 303.232 130.351 294.151 128.434L295.342 83.0914Z" fill="#E2E3E4"/>
</g>
<defs>
<clipPath id="clip0_14_79">
<rect width="500" height="359" fill="white"/>
</clipPath>
</defs>
</svg>
